<svg width="144" height="38" viewBox="0 0 248 41" fill="none" xmlns="http://www.w3.org/2000/svg">
<path d="M32.9281 31.7399L32.8909 31.879H24.7309C24.7056 31.1372 24.6614 30.2872 24.5981 29.329C24.5669 28.3708 24.5202 27.3508 24.4581 26.2689H14.0901C12.8703 28.4326 11.7773 30.3026 10.8109 31.879H2.65086L2.6757 31.7863L20.3548 2.53032H30.9148L32.9281 31.7399ZM24.1226 7.81587C23.3802 9.39226 22.4027 11.3087 21.1901 13.5651C19.9775 15.8215 18.7204 18.1242 17.419 20.4734H24.283C24.2084 18.1242 24.1695 15.8215 24.1661 13.5651C24.1627 11.3087 24.2122 9.39226 24.3146 7.81587H24.1226Z" fill="#77C1D2"/>
<path d="M43.9496 31.879H36.2696L44.6305 0.675741H52.3105L43.9496 31.879ZM55.092 40.5028H47.412L55.7729 9.29953H63.0689L62.5957 12.4987L62.5211 12.7769H62.6171C63.5007 11.5096 64.5172 10.5823 65.6665 9.99499C66.8562 9.3768 68.411 9.0677 70.331 9.0677C73.435 9.0677 75.471 9.94863 76.4389 11.7105C77.4471 13.4414 77.4951 16.0687 76.5829 19.5924C75.8104 22.7143 74.8036 25.218 73.5623 27.1035C72.3614 28.9581 70.9013 30.2872 69.1819 31.0908C67.4626 31.8945 65.4349 32.2963 63.0989 32.2963C61.8829 32.2963 60.8079 32.1881 59.8739 31.9717C58.9719 31.7554 58.2423 31.4926 57.6851 31.1835L57.5767 31.2299L55.092 40.5028ZM66.1454 15.3733C64.8654 15.3733 63.7219 15.7596 62.7148 16.5324C61.7161 17.2742 60.9724 18.557 60.4837 20.3806L59.1793 25.2489C60.239 25.7125 61.5689 25.9444 63.1689 25.9444C64.6729 25.9444 65.836 25.6044 66.6582 24.9243C67.5207 24.2134 68.2336 22.807 68.7968 20.7052C69.2854 18.8815 69.3897 17.5369 69.1096 16.6715C68.8295 15.806 67.8414 15.3733 66.1454 15.3733ZM92.9258 0.907563C92.7236 2.02031 92.5231 2.9476 92.3244 3.68943C92.2084 4.12216 92.0723 4.57035 91.9161 5.034C91.8001 5.46674 91.6356 5.96129 91.4225 6.51766C90.7174 6.6413 90.0366 6.73403 89.38 6.79585C88.7234 6.85767 88.0751 6.88858 87.4351 6.88858C86.8271 6.88858 86.2114 6.85767 85.588 6.79585C84.9966 6.73403 84.3974 6.6413 83.7905 6.51766C83.8673 5.9922 83.9477 5.5131 84.0317 5.08036C84.1239 4.61672 84.228 4.16853 84.3439 3.73579C84.4516 3.33397 84.5836 2.90124 84.7398 2.43759C84.896 1.97395 85.0807 1.46394 85.2938 0.907563C85.9752 0.753015 86.64 0.660287 87.2883 0.629377C87.9769 0.567557 88.6411 0.536647 89.2811 0.536647C89.8891 0.536647 90.4889 0.567557 91.0803 0.629377C91.712 0.660287 92.3272 0.753015 92.9258 0.907563ZM84.627 31.879H76.947L82.9971 9.29953H90.6771L84.627 31.879ZM97.6215 31.879H89.9415L95.9916 9.29953H103.288L102.566 13.426H102.71C103.531 12.035 104.616 10.9686 105.967 10.2268C107.326 9.45408 109.03 9.0677 111.078 9.0677C113.862 9.0677 115.707 9.82499 116.613 11.3396C117.551 12.8541 117.519 15.4815 116.517 19.2215L113.125 31.879H105.445L108.404 20.6588C108.868 18.9279 108.927 17.6915 108.582 16.9497C108.237 16.2078 107.312 15.8369 105.808 15.8369C104.4 15.8369 103.317 16.1769 102.559 16.8569C101.809 17.506 101.202 18.6342 100.74 20.2415L97.6215 31.879ZM139.185 31.1372C138.207 31.4463 136.884 31.7245 135.218 31.9717C133.592 32.1881 131.691 32.2963 129.515 32.2963C126.763 32.2963 124.502 31.9563 122.732 31.2763C121.003 30.5654 119.865 29.3753 119.321 27.7062C118.784 26.0062 118.918 23.657 119.721 20.6588C120.814 16.5787 122.565 13.6269 124.974 11.8032C127.415 9.97954 130.667 9.0677 134.731 9.0677C137.643 9.0677 139.823 9.46953 141.272 10.2732C142.753 11.0768 143.646 12.2205 143.953 13.7041C144.299 15.1569 144.203 16.8878 143.665 18.897C143.508 19.4843 143.306 20.1179 143.06 20.7979C142.846 21.4779 142.588 22.1425 142.286 22.7916L142.044 22.977H126.252C126.111 24.3371 126.527 25.2334 127.499 25.6662C128.503 26.0989 130.253 26.3153 132.749 26.3153C134.413 26.3153 135.798 26.2844 136.902 26.2225C138.047 26.1298 139.216 26.0062 140.41 25.8516L140.564 25.9907L139.185 31.1372ZM137.204 18.1088C137.403 17.3669 137.445 16.7333 137.33 16.2078C137.255 15.6515 136.903 15.2342 136.273 14.956C135.652 14.6469 134.653 14.4923 133.277 14.4923C131.261 14.4923 129.842 14.8324 129.02 15.5124C128.238 16.1615 127.702 17.0269 127.412 18.1088H137.204Z" fill="#FFFFFE"/>
<path d="M178.986 8.51133H164.25L165.852 2.53032H190.188L188.76 7.86223L169.251 25.8516L169.226 25.9444H184.682L183.08 31.9254H157.208L158.512 27.0571L178.961 8.60406L178.986 8.51133Z" fill="#38A169"/>
<path d="M202.387 9.0677C205.459 9.0677 207.856 9.3768 209.578 9.99499C211.301 10.6132 212.37 11.7568 212.787 13.426C213.244 15.0642 213.054 17.4442 212.218 20.5661L209.187 31.879H202.227L202.558 29.7462H202.414C201.599 30.519 200.489 31.1372 199.085 31.6008C197.681 32.0645 195.955 32.2963 193.907 32.2963C188.371 32.2963 186.274 29.7926 187.615 24.7853C188.187 22.6525 189.354 20.9834 191.117 19.7779C192.92 18.5415 195.39 17.9233 198.526 17.9233H205.63C205.754 16.6251 205.41 15.7596 204.598 15.3269C203.794 14.8633 202.272 14.6314 200.032 14.6314C198.624 14.6314 197.203 14.7396 195.769 14.956C194.375 15.1414 193.133 15.3578 192.043 15.6051L191.924 15.5124L193.413 10.1341C194.103 9.94863 194.964 9.77863 195.998 9.62408C197.039 9.43862 198.117 9.29953 199.23 9.2068C200.374 9.11407 201.427 9.0677 202.387 9.0677ZM197.341 26.8253C199.325 26.8253 200.875 26.5935 201.991 26.1298C203.116 25.6353 203.835 24.8625 204.148 23.8116L204.459 22.6525H199.035C197.627 22.6525 196.581 22.8534 195.897 23.2552C195.254 23.6261 194.845 24.1361 194.671 24.7853C194.464 25.558 194.607 26.0989 195.101 26.408C195.602 26.6862 196.349 26.8253 197.341 26.8253ZM216.345 30.349C215.405 29.9162 214.786 29.3599 214.488 28.6799C214.191 27.9999 214.17 27.1807 214.427 26.2225C214.659 25.3571 215.102 24.5998 215.755 23.9507C216.441 23.3016 217.25 22.7916 218.181 22.4207L218.219 22.2816C217.584 21.6634 217.199 20.8906 217.064 19.9633C216.969 19.0052 217.087 17.9079 217.418 16.6715C218.081 14.1987 219.418 12.3132 221.43 11.015C223.441 9.71681 226.495 9.0677 230.591 9.0677C233.951 9.0677 236.387 9.53135 237.899 10.4586H238.139C238.866 9.65499 239.7 8.99043 240.641 8.46497C241.582 7.9395 242.628 7.67677 243.78 7.67677C244.132 7.67677 244.448 7.69223 244.728 7.72314C245.016 7.72314 245.284 7.73859 245.531 7.7695L244.003 13.4723C243.428 13.3487 242.725 13.2869 241.893 13.2869C241.221 13.2869 240.564 13.3487 239.923 13.4723C240.035 14.3687 239.925 15.4351 239.594 16.6715C238.882 19.3297 237.536 21.2461 235.557 22.4207C233.579 23.5952 230.573 24.1825 226.541 24.1825C225.613 24.1825 224.758 24.1516 223.974 24.0898C223.191 24.028 222.48 23.9352 221.841 23.8116C221.647 24.0589 221.504 24.3525 221.413 24.6925C221.28 25.1871 221.328 25.6044 221.557 25.9444C221.826 26.2535 222.377 26.408 223.209 26.408H230.121C233.065 26.408 235.137 26.8562 236.337 27.7526C237.569 28.649 237.841 30.3799 237.153 32.9454C236.474 35.48 234.933 37.4118 232.528 38.7409C230.124 40.0701 226.49 40.7346 221.626 40.7346C217.626 40.7346 214.855 40.2092 213.313 39.1582C211.762 38.1382 211.252 36.6391 211.782 34.6609C212.072 33.579 212.616 32.6827 213.414 31.9717C214.221 31.2299 215.186 30.7354 216.308 30.4881L216.345 30.349ZM227.871 19.2215C229.375 19.2215 230.476 19.0515 231.175 18.7115C231.883 18.3406 232.361 17.6915 232.609 16.7642C232.858 15.8369 232.736 15.1569 232.244 14.7242C231.752 14.2914 230.754 14.0751 229.25 14.0751C227.714 14.0751 226.584 14.2914 225.86 14.7242C225.136 15.1569 224.65 15.8369 224.401 16.7642C224.153 17.6915 224.283 18.3406 224.791 18.7115C225.308 19.0515 226.335 19.2215 227.871 19.2215ZM224.004 35.2636C225.7 35.2636 226.969 35.1863 227.81 35.0318C228.652 34.8772 229.242 34.6454 229.581 34.3363C229.919 34.0272 230.151 33.6409 230.275 33.1772C230.416 32.6518 230.368 32.2345 230.131 31.9254C229.902 31.5854 229.467 31.4154 228.827 31.4154H221.483C220.843 31.4154 220.318 31.5854 219.907 31.9254C219.504 32.2345 219.232 32.6518 219.091 33.1772C218.967 33.6409 218.991 34.0272 219.165 34.3363C219.37 34.6454 219.836 34.8772 220.562 35.0318C221.321 35.1863 222.468 35.2636 224.004 35.2636Z" fill="white"/>
</svg>
